HIERARCHY
ROOT Hips
{
	OFFSET	0.00	0.00	0.00
	CHANNELS 6 Xposition Yposition Zposition Zrotation Xrotation Yrotation
	JOINT LeftUpperLeg
	{
		OFFSET	 0.100000	-0.066564	-0.000554
		CHANNELS 3 Zrotation Xrotation Yrotation
		JOINT LeftLowerLeg
		{
			OFFSET	 0.002447	-0.463436	-0.005172
			CHANNELS 3 Zrotation Xrotation Yrotation
			JOINT LeftFoot
			{
				OFFSET	-0.002447	-0.420480	-0.020576
				CHANNELS 3 Zrotation Xrotation Yrotation
				JOINT LeftToes
				{
					OFFSET	 0.003734	-0.104922	 0.126407
					CHANNELS 3 Zrotation Xrotation Yrotation
					End Site
					{
						OFFSET	 0.000000	 0.000000	 0.059955
					}
				}
			}
		}
	}
	JOINT RightUpperLeg
	{
		OFFSET	-0.100000	-0.066564	-0.000554
		CHANNELS 3 Zrotation Xrotation Yrotation
		JOINT RightLowerLeg
		{
			OFFSET	-0.002447	-0.463436	-0.005146
			CHANNELS 3 Zrotation Xrotation Yrotation
			JOINT RightFoot
			{
				OFFSET	 0.002447	-0.420479	-0.020602
				CHANNELS 3 Zrotation Xrotation Yrotation
				JOINT RightToes
				{
					OFFSET	-0.003734	-0.104922	 0.126407
					CHANNELS 3 Zrotation Xrotation Yrotation
					End Site
					{
						OFFSET	-0.000000	 0.000000	 0.059955
					}
				}
			}
		}
	}
	JOINT Spine
	{
		OFFSET	 0.000000	 0.099235	-0.012273
		CHANNELS 3 Zrotation Xrotation Yrotation
		JOINT Chest
		{
			OFFSET	-0.000001	 0.116455	-0.014223
			CHANNELS 3 Zrotation Xrotation Yrotation
			JOINT UpperChest
			{
				OFFSET	 0.000001	 0.133602	-0.016265
				CHANNELS 3 Zrotation Xrotation Yrotation
				JOINT LeftShoulder
				{
					OFFSET	 0.061058	 0.091105	 0.007056
					CHANNELS 3 Zrotation Xrotation Yrotation
					JOINT LeftUpperArm
					{
						OFFSET	 0.133942	-0.002659	-0.026009
						CHANNELS 3 Zrotation Xrotation Yrotation
						JOINT LeftLowerArm
						{
							OFFSET	 0.274047	 0.000000	 0.000000
							CHANNELS 3 Zrotation Xrotation Yrotation
							JOINT LeftHand
							{
								OFFSET	 0.276145	 0.000000	 0.000000
								CHANNELS 3 Zrotation Xrotation Yrotation
								End Site
								{
									OFFSET	 0.165687	 0.000000	 0.000000
								}
							}
						}
					}
				}
				JOINT Neck
				{
					OFFSET	 0.000000	 0.150325	 0.007929
					CHANNELS 3 Zrotation Xrotation Yrotation
					JOINT Head
					{
						OFFSET	 0.000000	 0.103218	 0.031424
						CHANNELS 3 Zrotation Xrotation Yrotation
						End Site
						{
							OFFSET	 0.000000	 0.061931	 0.018855
						}
					}
				}
				JOINT RightShoulder
				{
					OFFSET	-0.061057	 0.091105	 0.007056
					CHANNELS 3 Zrotation Xrotation Yrotation
					JOINT RightUpperArm
					{
						OFFSET	-0.133943	-0.002660	-0.026009
						CHANNELS 3 Zrotation Xrotation Yrotation
						JOINT RightLowerArm
						{
							OFFSET	-0.274047	 0.000000	 0.000000
							CHANNELS 3 Zrotation Xrotation Yrotation
							JOINT RightHand
							{
								OFFSET	-0.276145	 0.000000	 0.000000
								CHANNELS 3 Zrotation Xrotation Yrotation
								End Site
								{
									OFFSET	-0.165687	 0.000000	 0.000000
								}
							}
						}
					}
				}
			}
		}
	}
}
MOTION
Frames:    8
Frame Time: 0.03333334
 0.198070	 1.043140	-0.281010	-1.638285	-1.685145	-61.138420	 9.028798	-26.158130	 11.047850	-1.934618	 56.317070	 1.034148	-9.247691	-15.579770	 2.125835	 0.000227	 0.524649	-0.000040	-0.699364	 0.363664	-14.581230	-0.475390	 17.925680	 0.085536	-0.460544	-16.034860	-10.217780	 0.000649	 0.355461	 0.000200	 1.741892	 1.746766	-1.199058	-0.000000	 0.000000	 0.000000	 3.528922	 3.462982	-2.457516	 0.758101	 1.652210	 14.396340	-84.666530	-4.421909	 2.004429	-5.118945	 15.819270	-18.984780	 26.157990	 26.252000	-26.521060	-3.626704	 10.350810	 20.123490	-3.892179	 10.341340	 20.291620	 1.817644	 3.114286	-13.483740	 74.859420	 6.913733	 12.803600	 0.790433	 4.070576	 16.253240	-15.726400	 7.792464	 11.585720
 0.181700	 1.039710	-0.273560	-1.529826	-1.233713	-60.987950	 9.480990	-27.689330	 11.557850	-1.661476	 52.009780	 0.808902	-9.886954	-16.061940	 1.556316	-0.000118	 0.346556	-0.000095	-0.147374	 1.090080	-13.735640	-0.421058	 18.168130	 0.077118	-0.638901	-17.353670	-11.311960	 0.001096	 0.354867	 0.000208	 1.775640	 1.660779	-1.233650	-0.000000	 0.000000	 0.000000	 3.596364	 3.289167	-2.524919	 0.816389	 1.264841	 14.795220	-84.940830	-3.903837	 1.946053	-4.918093	 15.567880	-18.453210	 26.223510	 26.255110	-26.389150	-3.718402	 10.234190	 20.313010	-3.805993	 10.399730	 20.387730	 2.004860	 3.113949	-13.481860	 74.590160	 6.998631	 13.367280	 1.424083	 3.998152	 16.523860	-15.941100	 8.084879	 12.833880
 0.160010	 1.034930	-0.262490	-1.679481	-0.727501	-60.784230	 9.822547	-28.869670	 11.559910	-1.027201	 46.104150	 0.436261	-10.255590	-16.233780	 1.785868	-0.000170	 0.285925	 0.000155	 0.615452	 2.398041	-12.751000	-0.413427	 18.464900	 0.078338	-0.885391	-19.155520	-12.573620	 0.000642	 0.354317	 0.000497	 1.834299	 1.643804	-1.365554	-0.000000	 0.000000	 0.000000	 3.718676	 3.248374	-2.789921	 0.817085	 1.380846	 14.674670	-84.957180	-3.641288	 1.680057	-4.659680	 15.385340	-17.734480	 27.218590	 24.915220	-26.385950	-3.501120	 10.403630	 20.377980	-3.672506	 10.421620	 20.641850	 2.275947	 3.297671	-13.610020	 74.413940	 7.105592	 14.306290	 2.648320	 2.382788	 14.721500	-16.271390	 9.362638	 16.036680
 0.143890	 1.031080	-0.252550	-1.734682	-0.531680	-60.785160	 9.300605	-29.129510	 8.813449	-1.297347	 41.961150	 0.497473	-11.153760	-16.703700	 3.862692	 0.000016	 0.306708	-0.000197	 0.825231	 3.515509	-12.565680	-0.457802	 18.592970	 0.084497	-0.913122	-20.376730	-12.885300	 0.000397	 0.354337	-0.000859	 1.845175	 1.613095	-1.428121	-0.000000	 0.000000	 0.000000	 3.739044	 3.183564	-2.914383	 0.496366	 1.441211	 14.815730	-84.854220	-3.505121	 1.630479	-4.467080	 15.384550	-17.405480	 27.566470	 24.616750	-26.404380	-3.647047	 10.414850	 20.631470	-3.695263	 10.471270	 20.760600	 2.329662	 3.317185	-13.328850	 74.493850	 6.903595	 14.625310	 2.948817	 2.535953	 14.906160	-16.132020	 9.738736	 16.421760
 0.122920	 1.026020	-0.239240	-1.770016	 0.008955	-61.413010	 8.906803	-28.141680	 4.713927	-1.222881	 36.352280	 0.402383	-12.192970	-18.961680	 8.950756	-0.000352	 0.406615	-0.000338	 1.208525	 5.005484	-12.150750	-0.487264	 18.288550	 0.089093	-0.775800	-21.630110	-12.790390	-0.000062	 0.352049	 0.000162	 1.916874	 1.511113	-1.326472	-0.000000	 0.000000	 0.000000	 3.877837	 2.981065	-2.708841	 0.397812	 1.433297	 15.225610	-84.661380	-3.547943	 1.617610	-4.372917	 15.549950	-16.911130	 27.523980	 24.809510	-26.395140	-3.685416	 10.242050	 21.265390	-3.797111	 10.450850	 21.063280	 2.256526	 3.210245	-12.966090	 75.315190	 6.756447	 14.181160	 3.297255	 2.591208	 14.667250	-16.241830	 10.786860	 17.862000
 0.107650	 1.022760	-0.227930	-1.669292	 0.202642	-61.941460	 8.516961	-26.575530	 2.284959	-1.515981	 32.576030	 0.442113	-11.459660	-20.528200	 13.853440	-0.000749	 0.485468	 0.000413	 1.109915	 6.211794	-11.815010	-0.474320	 17.868320	 0.085717	-0.400967	-22.292330	-12.517420	 0.000363	 0.351474	 0.000047	 1.957622	 1.311153	-1.089505	-0.000000	 0.000000	 0.000000	 3.947428	 2.587815	-2.227501	-0.137453	 1.694161	 14.998140	-84.452450	-3.765437	 1.495622	-4.125622	 15.081450	-16.774090	 27.929990	 24.662880	-26.308000	-3.958928	 10.257850	 21.482470	-3.961350	 10.679980	 21.018310	 1.802160	 3.404278	-13.280500	 75.457850	 7.017209	 14.187130	 3.806772	 2.801203	 14.502040	-16.239020	 11.326130	 18.438240
 0.088430	 1.019270	-0.213200	-1.389598	 0.472403	-62.714440	 8.745937	-25.625370	 3.019990	-1.041799	 31.239390	 0.290436	-11.459490	-21.998950	 15.868160	-0.000258	 0.515843	 0.000175	 0.782876	 7.450312	-11.591460	-0.475278	 17.569550	 0.083429	 0.361526	-22.647360	-11.726340	 0.000400	-0.053914	 0.000266	 1.899878	 1.120268	-0.990681	-0.000000	 0.000000	 0.000000	 3.824405	 2.210159	-2.021148	-0.697824	 1.885199	 14.710840	-84.333610	-3.817737	 1.560780	-3.723759	 14.847340	-16.093870	 28.098710	 24.243140	-26.209940	-4.312758	 10.351990	 21.508660	-4.171435	 10.748150	 21.334410	 1.304069	 3.587542	-13.742190	 75.536640	 7.697236	 14.076410	 3.923677	 3.460529	 14.700300	-15.833200	 11.750940	 18.502730
 0.073620	 1.017860	-0.202590	-1.197586	 0.999278	-63.208770	 9.029202	-25.430310	 3.851370	-0.917292	 32.590770	 0.268491	-10.774770	-23.066620	 16.068450	-0.000384	 0.502597	 0.000598	 0.816968	 8.297027	-11.759360	-0.460792	 17.164820	 0.080224	 1.101787	-22.143180	-10.805950	-0.000235	-1.331521	 0.000174	 1.855032	 0.946353	-0.997714	-0.000000	 0.000000	 0.000000	 3.735941	 1.863527	-2.030988	-0.640740	 1.930840	 14.567830	-84.311470	-3.935252	 1.691906	-3.353832	 14.601220	-15.489180	 28.166030	 24.155990	-26.131690	-4.267556	 10.361570	 21.638370	-4.197440	 10.710000	 21.678700	 1.388126	 3.695897	-13.981990	 75.638380	 8.143907	 13.880700	 3.850754	 3.947623	 14.644950	-15.601450	 12.352390	 18.544140
